<?xml version="1.0" encoding="UTF-8" standalone="no"?>
<!-- Created with Inkscape (http://www.inkscape.org/) -->

<svg
   xmlns:dc="http://purl.org/dc/elements/1.1/"
   xmlns:cc="http://creativecommons.org/ns#"
   xmlns:rdf="http://www.w3.org/1999/02/22-rdf-syntax-ns#"
   xmlns:svg="http://www.w3.org/2000/svg"
   xmlns="http://www.w3.org/2000/svg"
   xmlns:sodipodi="http://sodipodi.sourceforge.net/DTD/sodipodi-0.dtd"
   xmlns:inkscape="http://www.inkscape.org/namespaces/inkscape"
   version="1.1"
   id="svg815"
   xml:space="preserve"
   width="1333.3333"
   height="1333.3333"
   viewBox="0 0 1333.3333 1333.3333"
   sodipodi:docname="animal.svg"
   inkscape:version="0.92.3 (2405546, 2018-03-11)"><metadata
     id="metadata821"><rdf:RDF><cc:Work
         rdf:about=""><dc:format>image/svg+xml</dc:format><dc:type
           rdf:resource="http://purl.org/dc/dcmitype/StillImage" /><dc:title></dc:title></cc:Work></rdf:RDF></metadata><defs
     id="defs819"><clipPath
       clipPathUnits="userSpaceOnUse"
       id="clipPath833"><path
         d="M 0,1000 H 1000 V 0 H 0 Z"
         id="path831"
         inkscape:connector-curvature="0" /></clipPath><clipPath
       clipPathUnits="userSpaceOnUse"
       id="clipPath853"><path
         d="M 144.592,855.408 H 855.407 V 144.593 H 144.592 Z"
         id="path851"
         inkscape:connector-curvature="0" /></clipPath><linearGradient
       x1="0"
       y1="0"
       x2="1"
       y2="0"
       gradientUnits="userSpaceOnUse"
       gradientTransform="matrix(798.6673,-794.60175,-794.60175,-798.6673,-92.383766,1089.3685)"
       spreadMethod="pad"
       id="linearGradient863"><stop
         style="stop-opacity:1;stop-color:#ffffff"
         offset="0"
         id="stop859" /><stop
         style="stop-opacity:1;stop-color:#000000"
         offset="1"
         id="stop861" /></linearGradient></defs><sodipodi:namedview
     pagecolor="#ffffff"
     bordercolor="#666666"
     borderopacity="1"
     objecttolerance="10"
     gridtolerance="10"
     guidetolerance="10"
     inkscape:pageopacity="0"
     inkscape:pageshadow="2"
     inkscape:window-width="2560"
     inkscape:window-height="1361"
     id="namedview817"
     showgrid="false"
     inkscape:zoom="0.87600005"
     inkscape:cx="666.66663"
     inkscape:cy="666.66663"
     inkscape:window-x="2551"
     inkscape:window-y="-9"
     inkscape:window-maximized="1"
     inkscape:current-layer="g829" /><g
     id="g823"
     inkscape:groupmode="layer"
     inkscape:label="vectorstock_24272319"
     transform="matrix(1.3333333,0,0,-1.3333333,0,1333.3333)"><g
       id="g827"><g
         id="g829"
         clip-path="url(#clipPath833)"><g
           id="g835"
           transform="translate(500.0005,135.5488)"
           inkscape:export-xdpi="6.3200002"
           inkscape:export-ydpi="6.3200002"><path
             d="m 0,0 c -21.231,0 -41.191,8.268 -56.204,23.28 l -284.968,284.967 c -15.012,15.012 -23.28,34.973 -23.28,56.204 0,21.231 8.267,41.191 23.28,56.203 l 284.968,284.969 c 15.013,15.012 34.973,23.28 56.204,23.28 21.231,0 41.192,-8.268 56.203,-23.28 L 341.17,420.655 c 15.013,-15.013 23.281,-34.973 23.281,-56.204 0,-21.231 -8.268,-41.192 -23.282,-56.204 L 56.203,23.28 C 41.192,8.268 21.231,0 0,0"
             style="fill:#c80000;fill-opacity:1;fill-rule:nonzero;stroke:none"
             id="path837"
             inkscape:connector-curvature="0" /></g><g
           id="g839"
           transform="translate(807.5625,477.4082)"
           style="fill:#ffffff;fill-opacity:1"
           inkscape:export-xdpi="6.3200002"
           inkscape:export-ydpi="6.3200002"><path
             d="m 0,0 -284.97,-284.969 c -6.034,-6.035 -14.057,-9.359 -22.592,-9.359 -8.534,0 -16.558,3.324 -22.594,9.359 L -615.125,-0.001 c -6.034,6.033 -9.357,14.057 -9.357,22.592 0,8.535 3.323,16.559 9.358,22.595 l 284.967,284.968 c 6.036,6.034 14.06,9.358 22.595,9.358 8.535,0 16.558,-3.324 22.591,-9.358 L -0.002,45.186 C 6.033,39.149 9.357,31.125 9.357,22.591 9.357,14.057 6.034,6.033 0,0 m 18.593,63.78 -284.968,284.968 c -11.001,11.002 -25.628,17.061 -41.187,17.061 -15.559,0 -30.187,-6.059 -41.189,-17.061 L -633.719,63.78 c -11.001,-11.002 -17.06,-25.63 -17.06,-41.189 0,-15.559 6.059,-30.187 17.06,-41.187 l 284.968,-284.967 c 11.002,-11.002 25.63,-17.062 41.189,-17.062 15.559,0 30.186,6.06 41.187,17.062 L 18.593,-18.596 c 11.002,11 17.061,25.628 17.061,41.187 0,15.559 -6.059,30.187 -17.061,41.189"
             style="fill:#ffffff;fill-opacity:1;fill-rule:nonzero;stroke:none"
             id="path841"
             inkscape:connector-curvature="0" /></g><g
           id="g843"
           transform="translate(344.0239,357.79)"
           style="fill:#ffffff;fill-opacity:1"
           inkscape:export-xdpi="6.3200002"
           inkscape:export-ydpi="6.3200002"><path
             d="M 0,0 C -0.708,0 -1.401,0.156 -2.059,0.463 -4.545,1.624 -5.871,4.628 -5.144,7.45 l 2.348,9.111 c 0.355,1.376 1.162,2.533 2.272,3.257 l 11.199,7.311 c 0.574,0.374 1.025,0.974 1.27,1.689 l 11.866,34.534 c 0.653,1.901 1.708,3.625 3.052,4.985 l 16.37,16.589 c 1.566,1.586 2.801,3.495 3.672,5.674 l 6.781,16.96 c 0.493,1.232 0.859,2.536 1.086,3.873 l 1.629,9.556 c 0.681,3.989 1.898,7.804 3.62,11.34 l 6.938,14.243 c 0.544,1.117 0.183,2.558 -0.805,3.212 l -0.089,0.067 -6.566,5.483 -2.454,15.737 2.348,6.832 c 1.822,5.305 5.236,9.784 9.613,12.615 l 3.053,1.974 c 0.281,0.182 0.601,0.278 0.926,0.278 0.542,0 1.071,-0.272 1.416,-0.727 0.374,-0.493 0.492,-1.122 0.323,-1.726 l -3.923,-14.004 c -0.481,-1.714 -0.547,-3.564 -0.193,-5.349 0.244,-1.227 0.227,-2.389 -0.05,-3.455 -0.476,-1.836 -0.931,-3.796 -1.068,-5.831 -0.006,-0.077 -0.011,-0.165 0.159,-0.381 l 4.45,-5.634 c 0.385,-0.487 0.918,-0.767 1.462,-0.767 0.157,0 0.314,0.024 0.465,0.071 l 14.901,4.584 c 2.723,0.838 5.547,1.263 8.392,1.263 3.259,0 6.503,-0.554 9.643,-1.647 l 3.93,-1.369 c 3.973,-1.383 8.075,-2.085 12.193,-2.084 3.085,0 6.162,0.397 9.145,1.181 l 39.761,10.447 c 1.925,0.506 3.76,1.326 5.459,2.438 l 11.216,7.347 c 1.465,0.96 2.801,2.148 3.971,3.533 l 8.258,9.779 c 1.657,1.964 2.936,4.254 3.797,6.807 l 16.807,49.803 c 0.453,1.343 0.173,2.908 -0.713,3.988 l -3.489,4.248 c -0.544,0.793 -0.888,1.6 -1.082,2.471 l -2.687,12.199 c -0.163,0.744 0.005,1.496 0.462,2.065 0.413,0.514 1.013,0.808 1.647,0.808 0.238,0 0.475,-0.041 0.704,-0.122 l 10.337,-3.653 4.652,-2.099 3.047,3.039 c 0.239,0.237 0.454,0.48 0.659,0.743 0.714,0.911 2.485,3.192 3.535,4.699 0.383,0.55 0.499,1.292 0.31,1.982 l -3.127,11.464 c -0.299,1.102 -0.265,2.293 0.097,3.354 l 4.054,11.873 c 0.234,0.689 0.84,1.135 1.543,1.135 0.568,0 1.094,-0.301 1.406,-0.803 l 0.116,-0.187 c 1.954,-3.147 2.512,-7.007 1.532,-10.59 l -0.867,-3.169 c -0.055,-0.202 -0.038,-0.431 0.048,-0.626 l 1.931,-4.38 c 0.107,-0.245 0.312,-0.409 0.51,-0.409 0.041,0 0.083,0.007 0.123,0.022 l 2.696,0.967 c 0.067,0.024 0.13,0.067 0.185,0.128 l 4.301,4.722 c 0.072,0.08 0.127,0.184 0.158,0.302 l 5.934,22.458 c 0.198,0.752 0.834,1.257 1.582,1.257 0.587,0 1.121,-0.316 1.43,-0.845 l 0.376,-0.643 c 1.924,-3.293 2.509,-7.314 1.606,-11.03 l -2.786,-11.474 c -0.061,-0.251 -0.013,-0.526 0.128,-0.737 0.06,-0.088 0.187,-0.241 0.38,-0.27 0,0 5.368,-0.819 5.371,-0.819 0.248,0 0.421,0.16 0.499,0.405 l 4.72,14.874 c 1.791,5.645 5.291,10.442 9.854,13.508 0.204,0.137 0.442,0.21 0.685,0.21 0.389,0 0.765,-0.192 1.004,-0.513 0.245,-0.331 0.32,-0.766 0.2,-1.163 l -8.091,-26.981 5.297,1.633 c 1.427,0.437 2.557,1.595 3.099,3.176 l 3.234,9.408 c 0.16,0.468 0.596,0.781 1.083,0.781 0.449,0 0.861,-0.268 1.05,-0.684 l 1.79,-3.908 c 0.929,-2.033 1.051,-4.395 0.335,-6.481 l -1.973,-5.741 c -0.714,-2.082 -2.207,-3.714 -4.096,-4.478 l -12.644,-5.115 c -1.069,-0.432 -2.194,-0.652 -3.342,-0.652 -0.161,0 -0.323,0.004 -0.484,0.013 l -9.849,0.536 c -0.062,0.003 -0.123,0.005 -0.184,0.005 -0.923,0 -1.809,-0.381 -2.494,-1.074 l -3.21,-3.241 -2.533,-1.341 c -1.362,-0.722 -2.473,-1.894 -3.211,-3.39 l -4.275,-8.678 c -0.594,-1.204 -0.115,-2.818 1.003,-3.388 18.293,-9.317 18.864,-10.485 18.569,-11.473 0.075,-0.351 0.644,-2.08 4.912,-8.822 0.622,-0.982 1.467,-1.742 2.443,-2.198 l 14.16,-6.611 c 1.884,-0.881 2.804,-3.19 2.093,-5.256 l -0.931,-2.713 c -0.447,-1.301 -1.283,-2.414 -2.354,-3.136 l -10.657,-7.183 c -1.47,-0.99 -3.165,-1.514 -4.904,-1.514 -0.573,0 -1.15,0.057 -1.716,0.171 l -12.366,2.467 c -0.202,0.04 -0.407,0.06 -0.607,0.06 -1.512,0 -2.821,-1.125 -3.257,-2.799 l -8.057,-30.971 c -0.412,-1.586 -0.467,-3.294 -0.157,-4.939 l 4.096,-21.709 c 0.81,-4.294 0.506,-8.692 -0.878,-12.72 l -5.677,-16.525 c -0.16,-0.465 -0.1,-0.995 0.16,-1.417 0.119,-0.196 0.387,-0.532 0.834,-0.595 l 33.121,-4.597 c 1.894,-0.262 3.603,-1.325 4.813,-2.992 l 3.742,-5.159 c 1.62,-2.234 2.067,-5.249 1.167,-7.868 l -2.729,-7.942 c -0.447,-1.3 -1.447,-2.294 -2.676,-2.66 -0.53,-0.156 -0.985,-0.571 -1.25,-1.137 L 261.85,49.953 c -1.015,-2.173 -2.551,-3.977 -4.442,-5.219 L 237.176,31.468 c -0.551,-0.362 -1.176,-0.553 -1.808,-0.553 -0.989,0 -1.954,0.46 -2.653,1.262 -0.778,0.894 -1.128,2.104 -0.959,3.318 l 1.193,8.551 c 0.129,0.932 0.565,1.77 1.227,2.362 l 11.763,10.526 c 1.211,1.082 2.19,2.5 2.834,4.101 l 11.179,27.818 c 0.114,0.285 -0.02,0.518 -0.064,0.584 -0.055,0.081 -0.145,0.167 -0.236,0.167 L 226.417,81.62 188.87,81.442 c -2.924,0 -5.84,0.479 -8.666,1.422 l -23.257,7.766 c -2.144,0.716 -4.354,1.078 -6.569,1.078 -0.519,0 -1.037,-0.02 -1.554,-0.06 l -28.087,-2.176 c -2.144,-0.165 -4.12,-1.095 -5.716,-2.687 L 102.054,73.855 C 99.649,71.456 96.7,69.772 93.527,68.984 L 49.51,58.071 c -1.283,-0.318 -2.474,-0.913 -3.54,-1.767 l -7.776,-6.23 c -1.557,-1.248 -2.749,-2.98 -3.445,-5.01 L 24.403,14.954 C 23.982,13.729 23.172,12.72 22.122,12.109 L 2.388,0.647 C 1.659,0.224 0.833,0 0,0"
             style="fill:#ffffff;fill-opacity:1;fill-rule:nonzero;stroke:none"
             id="path845"
             inkscape:connector-curvature="0" /></g></g></g></g></svg>