<?xml version="1.0" encoding="UTF-8" standalone="no"?>
<!-- Created with Inkscape (http://www.inkscape.org/) -->

<svg
   xmlns:dc="http://purl.org/dc/elements/1.1/"
   xmlns:cc="http://creativecommons.org/ns#"
   xmlns:rdf="http://www.w3.org/1999/02/22-rdf-syntax-ns#"
   xmlns:svg="http://www.w3.org/2000/svg"
   xmlns="http://www.w3.org/2000/svg"
   xmlns:sodipodi="http://sodipodi.sourceforge.net/DTD/sodipodi-0.dtd"
   xmlns:inkscape="http://www.inkscape.org/namespaces/inkscape"
   version="1.1"
   id="svg10"
   xml:space="preserve"
   width="1333.3333"
   height="1333.3333"
   viewBox="0 0 1333.3333 1333.3333"
   sodipodi:docname="crash.svg"
   inkscape:export-filename="C:\Users\Martin\Desktop\Programming\Web Apps\2019 Accident Map Redesign\src\img\icons\crash-icon-fatal.png"
   inkscape:export-xdpi="6.3200002"
   inkscape:export-ydpi="6.3200002"
   inkscape:version="0.92.3 (2405546, 2018-03-11)"><metadata
     id="metadata16"><rdf:RDF><cc:Work
         rdf:about=""><dc:format>image/svg+xml</dc:format><dc:type
           rdf:resource="http://purl.org/dc/dcmitype/StillImage" /><dc:title /></cc:Work></rdf:RDF></metadata><defs
     id="defs14"><clipPath
       clipPathUnits="userSpaceOnUse"
       id="clipPath28"><path
         d="M 0,1000 H 1000 V 0 H 0 Z"
         id="path26"
         inkscape:connector-curvature="0" /></clipPath><clipPath
       clipPathUnits="userSpaceOnUse"
       id="clipPath48"><path
         d="M 144.592,855.408 H 855.407 V 144.593 H 144.592 Z"
         id="path46"
         inkscape:connector-curvature="0" /></clipPath><linearGradient
       x1="0"
       y1="0"
       x2="1"
       y2="0"
       gradientUnits="userSpaceOnUse"
       gradientTransform="matrix(798.6673,-794.60175,-794.60175,-798.6673,-92.383766,1089.3685)"
       spreadMethod="pad"
       id="linearGradient58"><stop
         style="stop-opacity:1;stop-color:#ffffff"
         offset="0"
         id="stop54" /><stop
         style="stop-opacity:1;stop-color:#000000"
         offset="1"
         id="stop56" /></linearGradient></defs><sodipodi:namedview
     pagecolor="#ffffff"
     bordercolor="#666666"
     borderopacity="1"
     objecttolerance="10"
     gridtolerance="10"
     guidetolerance="10"
     inkscape:pageopacity="0"
     inkscape:pageshadow="2"
     inkscape:window-width="2560"
     inkscape:window-height="1361"
     id="namedview12"
     showgrid="false"
     inkscape:zoom="0.87600005"
     inkscape:cx="449.99094"
     inkscape:cy="643.52414"
     inkscape:window-x="-9"
     inkscape:window-y="-9"
     inkscape:window-maximized="1"
     inkscape:current-layer="g30" /><g
     id="g18"
     inkscape:groupmode="layer"
     inkscape:label="vectorstock_24272319"
     transform="matrix(1.3333333,0,0,-1.3333333,0,1333.3333)"><g
       id="g22"
       inkscape:export-xdpi="6.3200002"
       inkscape:export-ydpi="6.3200002"><g
         id="g24"
         clip-path="url(#clipPath28)"><g
           id="g30"
           transform="translate(500.0005,135.5488)"><path
             d="m 0,0 c -21.231,0 -41.191,8.268 -56.204,23.28 l -284.968,284.967 c -15.012,15.012 -23.28,34.973 -23.28,56.204 0,21.231 8.267,41.191 23.28,56.203 l 284.968,284.969 c 15.013,15.012 34.973,23.28 56.204,23.28 21.231,0 41.192,-8.268 56.203,-23.28 L 341.17,420.655 c 15.013,-15.013 23.281,-34.973 23.281,-56.204 0,-21.231 -8.268,-41.192 -23.282,-56.204 L 56.203,23.28 C 41.192,8.268 21.231,0 0,0"
             style="fill:#ffbc27;fill-opacity:1;fill-rule:nonzero;stroke:none"
             id="path32"
             inkscape:connector-curvature="0"
             inkscape:export-xdpi="6.3200002"
             inkscape:export-ydpi="6.3200002" /></g><g
           id="g34"
           transform="translate(807.5625,477.4082)"
           inkscape:export-xdpi="6.3200002"
           inkscape:export-ydpi="6.3200002"><path
             d="m 0,0 -284.97,-284.969 c -6.034,-6.035 -14.057,-9.359 -22.592,-9.359 -8.534,0 -16.558,3.324 -22.594,9.359 L -615.125,-0.001 c -6.034,6.033 -9.357,14.057 -9.357,22.592 0,8.535 3.323,16.559 9.358,22.595 l 284.967,284.968 c 6.036,6.034 14.06,9.358 22.595,9.358 8.535,0 16.558,-3.324 22.591,-9.358 L -0.002,45.186 C 6.033,39.149 9.357,31.125 9.357,22.591 9.357,14.057 6.034,6.033 0,0 m 18.593,63.78 -284.968,284.968 c -11.001,11.002 -25.628,17.061 -41.187,17.061 -15.559,0 -30.187,-6.059 -41.189,-17.061 L -633.719,63.78 c -11.001,-11.002 -17.06,-25.63 -17.06,-41.189 0,-15.559 6.059,-30.187 17.06,-41.187 l 284.968,-284.967 c 11.002,-11.002 25.63,-17.062 41.189,-17.062 15.559,0 30.186,6.06 41.187,17.062 L 18.593,-18.596 c 11.002,11 17.061,25.628 17.061,41.187 0,15.559 -6.059,30.187 -17.061,41.189"
             style="fill:#1a1a1a;fill-opacity:1;fill-rule:nonzero;stroke:none"
             id="path36"
             inkscape:connector-curvature="0" /></g><g
           id="g38"
           transform="translate(344.0239,357.79)" /><g
           id="g42"><g
             id="g44" /></g><g
           id="g216"
           transform="matrix(2.9919488,0,0,3.2596863,436.69047,602.80834)"
           inkscape:export-xdpi="6.3200002"
           inkscape:export-ydpi="6.3200002"><path
             d="m 0,0 c 0,4.246 3.123,7.804 7.325,8.759 0.808,4.028 4.039,7.038 7.905,7.038 0.047,0 0.091,-0.003 0.138,-0.004 1.641,1.56 3.859,2.518 6.3,2.518 5.056,0 9.155,-4.099 9.155,-9.156 0,-0.202 -0.008,-0.402 -0.02,-0.601 3.915,-1.361 6.736,-5.16 6.736,-9.637 0,-2.452 -0.848,-4.701 -2.256,-6.458 1.317,-1.198 2.136,-2.872 2.136,-4.725 0,-3.939 -3.154,-5.629 -5.736,-6.315 -10.44,-15.62 -8.911,-20.981 -10.549,-21.451 -3.395,0.47 -3.827,15.029 -12.059,23.271 -1.014,0.586 -1.821,1.113 -2.444,1.585 -3.442,1.164 -5.883,4.08 -5.883,7.495 0,1.054 0.234,2.06 0.657,2.982 C 0.514,-3.332 0,-1.723 0,0"
             style="fill:#1f2933;fill-opacity:1;fill-rule:nonzero;stroke:none"
             id="path218"
             inkscape:connector-curvature="0" /></g><g
           id="g220"
           transform="matrix(2.8900006,0.84366887,-0.77437329,3.1486152,650.76391,489.2957)"
           inkscape:export-xdpi="6.3200002"
           inkscape:export-ydpi="6.3200002"><path
             d="m 0,0 1.191,9.264 c 0,0 9.437,0.18 13.839,-1.135 C 17.587,7.363 22.708,5.354 24.676,1.576 15.463,0.331 0,0 0,0 m -3.773,-0.201 -25.424,-1.593 c 0,0 2.001,2.626 10.028,6.55 8.026,3.922 17.508,4.451 17.508,4.451 z m 47.246,-4.55 c -0.101,1.446 0.132,3.316 -0.117,5.513 0.022,1.837 -0.872,1.741 -1.504,2.215 C 40.337,3.561 37.029,3.57 34.573,4.169 28.299,7.206 24.057,8.58 18.572,9.87 11.69,11.436 -3.352,13.139 -14.852,9.428 -22.917,6.92 -29.955,2.484 -36.385,-0.535 c -1.477,-0.114 -4.471,-0.775 -7.79,-1.67 -1.362,-3.374 -4.106,0.772 -6.378,-1.893 -1.506,-0.492 0.078,-1.228 -1.128,-1.703 -1.825,-0.718 -1.168,0.752 -1.598,0.779 -1.735,0.356 -1.512,-3.034 -1.735,-5.598 0.065,-3.626 0.79,-4.476 1.617,-6.011 0.957,-0.84 2.164,-3.986 2.164,-3.986 l 2.142,-0.369 c -0.142,0.616 2.207,11.728 7.373,11.839 5.167,0.109 9.46,-4.003 9.57,-9.171 0.02,-0.922 -0.097,-1.815 -0.328,-2.663 l 0.252,-0.005 47.45,1.971 0.203,0.021 c -0.113,0.547 -0.18,1.111 -0.193,1.689 -0.109,5.167 4.003,9.46 9.17,9.57 5.167,0.111 9.46,-4.003 9.57,-9.17 0.002,-0.072 0,-0.142 0,-0.214 l 0.4,0.04 c 0,0 6.182,0.919 8.137,1.739 4.758,3.482 2.722,9.532 0.96,10.589"
             style="fill:#1f2933;fill-opacity:1;fill-rule:nonzero;stroke:none"
             id="path222"
             inkscape:connector-curvature="0" /></g><g
           id="g224"
           transform="matrix(2.8900006,0.84366887,-0.77437329,3.1486152,539.81448,414.97353)"
           inkscape:export-xdpi="6.3200002"
           inkscape:export-ydpi="6.3200002"><path
             d="m 0,0 c -2.889,0 -5.24,-2.351 -5.24,-5.24 0,-2.891 2.351,-5.24 5.24,-5.24 2.89,0 5.24,2.349 5.24,5.24 C 5.24,-2.351 2.89,0 0,0 m 6.112,-11.053 c 1.674,-1.761 -3.71,-1.375 -6.112,-1.375 -2.235,0 -7.255,-0.344 -5.78,1.044 -1.636,1.539 -2.659,3.725 -2.659,6.144 0,4.652 3.786,8.438 8.439,8.438 4.654,0 8.438,-3.786 8.438,-8.438 0,-2.252 -0.885,-4.299 -2.326,-5.813"
             style="fill:#1f2933;fill-opacity:1;fill-rule:nonzero;stroke:none"
             id="path226"
             inkscape:connector-curvature="0" /></g><g
           id="g228"
           transform="matrix(2.8900006,0.84366887,-0.77437329,3.1486152,551.30044,400.64294)"
           inkscape:export-xdpi="6.3200002"
           inkscape:export-ydpi="6.3200002"><path
             d="m 0,0 c 0,1.419 -1.151,2.57 -2.57,2.57 -1.42,0 -2.571,-1.151 -2.571,-2.57 0,-1.419 1.151,-2.57 2.571,-2.57 C -1.151,-2.57 0,-1.419 0,0"
             style="fill:#1f2933;fill-opacity:1;fill-rule:nonzero;stroke:none"
             id="path230"
             inkscape:connector-curvature="0" /></g><path
           d="m 551.21099,379.41846 -4.94772,-1.44436 -10.16055,41.31295 4.94771,1.44438 z"
           style="fill:#1f2933;fill-opacity:1;fill-rule:nonzero;stroke:none;stroke-width:3.12294936"
           id="path232"
           inkscape:connector-curvature="0"
           inkscape:export-xdpi="6.3200002"
           inkscape:export-ydpi="6.3200002" /><path
           d="m 524.03306,396.5111 37.91975,11.06977 1.3249,-5.38728 -37.91968,-11.06979 z"
           style="fill:#1f2933;fill-opacity:1;fill-rule:nonzero;stroke:none;stroke-width:3.12294936"
           id="path234"
           inkscape:connector-curvature="0"
           inkscape:export-xdpi="6.3200002"
           inkscape:export-ydpi="6.3200002" /><g
           id="g236"
           transform="matrix(2.8900006,0.84366887,-0.77437329,3.1486152,536.05887,379.43657)"
           inkscape:export-xdpi="6.3200002"
           inkscape:export-ydpi="6.3200002"><path
             d="m 0,0 -1.211,1.21 9.279,9.278 1.21,-1.21 z"
             style="fill:#1f2933;fill-opacity:1;fill-rule:nonzero;stroke:none"
             id="path238"
             inkscape:connector-curvature="0" /></g><g
           id="g240"
           transform="matrix(2.8900006,0.84366887,-0.77437329,3.1486152,525.37525,407.62696)"
           inkscape:export-xdpi="6.3200002"
           inkscape:export-ydpi="6.3200002"><path
             d="m 0,0 1.211,1.211 9.277,-9.279 -1.209,-1.21 z"
             style="fill:#1f2933;fill-opacity:1;fill-rule:nonzero;stroke:none"
             id="path242"
             inkscape:connector-curvature="0" /></g><g
           id="g244"
           transform="matrix(2.8900006,0.84366887,-0.77437329,3.1486152,730.75221,470.71337)"
           inkscape:export-xdpi="6.3200002"
           inkscape:export-ydpi="6.3200002"><path
             d="m 0,0 c -2.89,0 -5.24,-2.351 -5.24,-5.24 0,-2.891 2.35,-5.24 5.24,-5.24 2.889,0 5.24,2.349 5.24,5.24 C 5.24,-2.351 2.889,0 0,0 m 0,-13.679 c -4.654,0 -8.44,3.785 -8.44,8.439 0,4.652 3.786,8.438 8.44,8.438 4.653,0 8.437,-3.786 8.437,-8.438 0,-4.654 -3.784,-8.439 -8.437,-8.439"
             style="fill:#1f2933;fill-opacity:1;fill-rule:nonzero;stroke:none"
             id="path246"
             inkscape:connector-curvature="0" /></g><g
           id="g248"
           transform="matrix(2.8900006,0.84366887,-0.77437329,3.1486152,742.23501,456.38186)"
           inkscape:export-xdpi="6.3200002"
           inkscape:export-ydpi="6.3200002"><path
             d="m 0,0 c 0,1.419 -1.15,2.57 -2.569,2.57 -1.42,0 -2.572,-1.151 -2.572,-2.57 0,-1.419 1.152,-2.57 2.572,-2.57 C -1.15,-2.57 0,-1.419 0,0"
             style="fill:#1f2933;fill-opacity:1;fill-rule:nonzero;stroke:none"
             id="path250"
             inkscape:connector-curvature="0" /></g><path
           d="m 742.14461,435.15713 -4.9447,-1.4435 -10.1606,41.31295 4.9448,1.44353 z"
           style="fill:#1f2933;fill-opacity:1;fill-rule:nonzero;stroke:none;stroke-width:3.12294936"
           id="path252"
           inkscape:connector-curvature="0"
           inkscape:export-xdpi="6.3200002"
           inkscape:export-ydpi="6.3200002" /><path
           d="m 714.96681,452.24978 37.9225,11.07063 1.325,-5.3873 -37.9226,-11.07063 z"
           style="fill:#1f2933;fill-opacity:1;fill-rule:nonzero;stroke:none;stroke-width:3.12294936"
           id="path254"
           inkscape:connector-curvature="0"
           inkscape:export-xdpi="6.3200002"
           inkscape:export-ydpi="6.3200002" /><g
           id="g256"
           transform="matrix(2.8900006,0.84366887,-0.77437329,3.1486152,726.99341,435.17548)"
           inkscape:export-xdpi="6.3200002"
           inkscape:export-ydpi="6.3200002"><path
             d="m 0,0 -1.21,1.21 9.279,9.278 1.21,-1.21 z"
             style="fill:#1f2933;fill-opacity:1;fill-rule:nonzero;stroke:none"
             id="path258"
             inkscape:connector-curvature="0" /></g><g
           id="g260"
           transform="matrix(2.8900006,0.84366887,-0.77437329,3.1486152,716.31321,463.36689)"
           inkscape:export-xdpi="6.3200002"
           inkscape:export-ydpi="6.3200002"><path
             d="m 0,0 1.21,1.211 9.279,-9.279 -1.21,-1.21 z"
             style="fill:#1f2933;fill-opacity:1;fill-rule:nonzero;stroke:none"
             id="path262"
             inkscape:connector-curvature="0" /></g><g
           id="g264"
           transform="matrix(2.8900006,0.84366887,-0.77437329,3.1486152,509.58667,416.62319)"
           inkscape:export-xdpi="6.3200002"
           inkscape:export-ydpi="6.3200002"><path
             d="m 0,0 0.385,1.23 c 0.704,2.241 2.334,5.823 3.602,6.396 1.53,0.692 6.684,-0.061 9.856,-0.817 L 15.096,6.51 15.694,9.018 14.44,9.316 C 13.023,9.655 5.805,11.276 2.925,9.975 0.148,8.721 -1.727,3.112 -2.075,2.001 L -2.46,0.771 Z"
             style="fill:#1f2933;fill-opacity:1;fill-rule:nonzero;stroke:none"
             id="path266"
             inkscape:connector-curvature="0" /></g><g
           id="g268"
           transform="matrix(2.8900006,-0.84366887,0.77437329,3.1486152,279.1403,515.07544)"
           inkscape:export-xdpi="6.3200002"
           inkscape:export-ydpi="6.3200002"><path
             d="m 0,0 c 1.967,3.777 7.09,5.788 9.646,6.552 4.402,1.317 13.839,1.135 13.839,1.135 l 1.19,-9.262 C 24.675,-1.575 9.213,-1.246 0,0 m 26.337,7.632 c 0,0 9.483,-0.529 17.509,-4.453 8.026,-3.925 10.028,-6.549 10.028,-6.549 l -25.426,1.592 z m -44.174,-24.547 c 1.955,-0.822 8.137,-1.739 8.137,-1.739 l 0.402,-0.041 c 0,0.071 -0.002,0.142 -10e-4,0.214 0.11,5.167 4.403,9.28 9.57,9.17 5.166,-0.111 9.28,-4.404 9.168,-9.569 -0.013,-0.579 -0.079,-1.143 -0.191,-1.691 l 0.202,-0.02 47.45,-1.971 0.253,0.005 c -0.233,0.847 -0.349,1.742 -0.33,2.664 0.112,5.165 4.405,9.28 9.57,9.168 5.167,-0.109 7.516,-11.221 7.374,-11.837 l 2.144,0.369 c 0,0 1.206,3.147 2.163,3.985 0.826,1.537 1.551,2.387 1.615,6.012 -0.221,2.563 0,5.955 -1.734,5.598 -0.429,-0.027 0.228,-1.498 -1.596,-0.78 -1.207,0.475 0.377,1.213 -1.129,1.704 -2.273,2.665 -5.017,-1.482 -6.378,1.893 -3.321,0.893 -6.313,1.555 -7.791,1.67 C 54.632,0.909 47.593,5.344 39.528,7.852 28.029,11.564 12.986,9.86 6.106,8.295 0.619,7.004 -3.624,5.63 -9.896,2.594 -12.354,1.994 -15.66,1.985 -17.177,1.4 c -0.632,-0.473 -1.525,-0.377 -1.501,-2.213 -0.25,-2.198 -0.019,-4.069 -0.118,-5.514 -1.764,-1.056 -3.797,-7.107 0.959,-10.588"
             style="fill:#1f2933;fill-opacity:1;fill-rule:nonzero;stroke:none"
             id="path270"
             inkscape:connector-curvature="0" /></g><g
           id="g272"
           transform="matrix(2.8900006,-0.84366887,0.77437329,3.1486152,440.97959,402.89369)"
           inkscape:export-xdpi="6.3200002"
           inkscape:export-ydpi="6.3200002"><path
             d="m 0,0 c 0,-2.889 2.352,-5.24 5.24,-5.24 2.89,0 5.241,2.351 5.241,5.24 0,2.89 -2.351,5.24 -5.241,5.24 C 2.352,5.24 0,2.89 0,0 m -3.199,0 c 0,4.654 3.786,8.439 8.439,8.439 4.654,0 8.44,-3.785 8.44,-8.439 0,-2.418 -1.024,-4.604 -2.659,-6.143 1.474,-1.388 -3.546,-1.044 -5.781,-1.044 -2.401,0 -7.784,-0.387 -6.11,1.373 C -2.313,-4.299 -3.199,-2.25 -3.199,0"
             style="fill:#1f2933;fill-opacity:1;fill-rule:nonzero;stroke:none"
             id="path274"
             inkscape:connector-curvature="0" /></g><g
           id="g276"
           transform="matrix(2.8900006,-0.84366887,0.77437329,3.1486152,448.69503,400.64134)"
           inkscape:export-xdpi="6.3200002"
           inkscape:export-ydpi="6.3200002"><path
             d="M 0,0 C 0,1.419 1.151,2.57 2.57,2.57 3.991,2.57 5.142,1.419 5.142,0 5.142,-1.419 3.991,-2.57 2.57,-2.57 1.151,-2.57 0,-1.419 0,0"
             style="fill:#1f2933;fill-opacity:1;fill-rule:nonzero;stroke:none"
             id="path278"
             inkscape:connector-curvature="0" /></g><path
           d="m 448.78743,379.41129 4.94479,-1.44354 10.16286,41.32244 -4.94476,1.44352 z"
           style="fill:#1f2933;fill-opacity:1;fill-rule:nonzero;stroke:none;stroke-width:3.12294936"
           id="path280"
           inkscape:connector-curvature="0"
           inkscape:export-xdpi="6.3200002"
           inkscape:export-ydpi="6.3200002" /><path
           d="m 475.9632,396.5079 -37.9197,11.06979 -1.32495,-5.38728 37.91969,-11.0698 z"
           style="fill:#1f2933;fill-opacity:1;fill-rule:nonzero;stroke:none;stroke-width:3.12294936"
           id="path282"
           inkscape:connector-curvature="0"
           inkscape:export-xdpi="6.3200002"
           inkscape:export-ydpi="6.3200002" /><g
           id="g284"
           transform="matrix(2.8900006,-0.84366887,0.77437329,3.1486152,463.93744,379.43843)"
           inkscape:export-xdpi="6.3200002"
           inkscape:export-ydpi="6.3200002"><path
             d="m 0,0 1.211,1.208 -9.279,9.279 -1.21,-1.209 z"
             style="fill:#1f2933;fill-opacity:1;fill-rule:nonzero;stroke:none"
             id="path286"
             inkscape:connector-curvature="0" /></g><g
           id="g288"
           transform="matrix(2.8900006,-0.84366887,0.77437329,3.1486152,474.62106,407.62883)"
           inkscape:export-xdpi="6.3200002"
           inkscape:export-ydpi="6.3200002"><path
             d="m 0,0 -1.211,1.21 -9.277,-9.279 1.209,-1.209 z"
             style="fill:#1f2933;fill-opacity:1;fill-rule:nonzero;stroke:none"
             id="path290"
             inkscape:connector-curvature="0" /></g><g
           id="g292"
           transform="matrix(2.8900006,-0.84366887,0.77437329,3.1486152,250.04503,458.63261)"
           inkscape:export-xdpi="6.3200002"
           inkscape:export-ydpi="6.3200002"><path
             d="m 0,0 c 0,-2.889 2.351,-5.24 5.241,-5.24 2.888,0 5.24,2.351 5.24,5.24 0,2.89 -2.352,5.24 -5.24,5.24 C 2.351,5.24 0,2.89 0,0 m -3.199,0 c 0,4.654 3.786,8.439 8.44,8.439 4.652,0 8.438,-3.785 8.438,-8.439 0,-4.653 -3.786,-8.439 -8.438,-8.439 -4.654,0 -8.44,3.786 -8.44,8.439"
             style="fill:#1f2933;fill-opacity:1;fill-rule:nonzero;stroke:none"
             id="path294"
             inkscape:connector-curvature="0" /></g><g
           id="g296"
           transform="matrix(2.8900006,-0.84366887,0.77437329,3.1486152,257.76077,456.38019)"
           inkscape:export-xdpi="6.3200002"
           inkscape:export-ydpi="6.3200002"><path
             d="M 0,0 C 0,1.419 1.151,2.57 2.571,2.57 3.991,2.57 5.14,1.419 5.14,0 5.14,-1.419 3.991,-2.57 2.571,-2.57 1.151,-2.57 0,-1.419 0,0"
             style="fill:#1f2933;fill-opacity:1;fill-rule:nonzero;stroke:none"
             id="path298"
             inkscape:connector-curvature="0" /></g><path
           d="m 257.85374,435.14996 4.94481,-1.44353 10.16288,41.32243 -4.94481,1.44351 z"
           style="fill:#1f2933;fill-opacity:1;fill-rule:nonzero;stroke:none;stroke-width:3.12294936"
           id="path300"
           inkscape:connector-curvature="0"
           inkscape:export-xdpi="6.3200002"
           inkscape:export-ydpi="6.3200002" /><path
           d="m 285.02951,452.24658 -37.92257,11.07063 -1.32496,-5.38728 37.92259,-11.07063 z"
           style="fill:#1f2933;fill-opacity:1;fill-rule:nonzero;stroke:none;stroke-width:3.12294936"
           id="path302"
           inkscape:connector-curvature="0"
           inkscape:export-xdpi="6.3200002"
           inkscape:export-ydpi="6.3200002" /><g
           id="g304"
           transform="matrix(2.8900006,-0.84366887,0.77437329,3.1486152,273.00633,435.17635)"
           inkscape:export-xdpi="6.3200002"
           inkscape:export-ydpi="6.3200002"><path
             d="m 0,0 1.21,1.208 -9.279,9.279 -1.21,-1.209 z"
             style="fill:#1f2933;fill-opacity:1;fill-rule:nonzero;stroke:none"
             id="path306"
             inkscape:connector-curvature="0" /></g><g
           id="g308"
           transform="matrix(2.8900006,-0.84366887,0.77437329,3.1486152,283.68649,463.36775)"
           inkscape:export-xdpi="6.3200002"
           inkscape:export-ydpi="6.3200002"><path
             d="m 0,0 -1.21,1.21 -9.278,-9.279 1.209,-1.209 z"
             style="fill:#1f2933;fill-opacity:1;fill-rule:nonzero;stroke:none"
             id="path310"
             inkscape:connector-curvature="0" /></g><g
           id="g312"
           transform="matrix(2.8900006,-0.84366887,0.77437329,3.1486152,490.40967,416.62537)"
           inkscape:export-xdpi="6.3200002"
           inkscape:export-ydpi="6.3200002"><path
             d="m 0,0 -0.385,1.23 c -0.702,2.241 -2.334,5.823 -3.602,6.395 -1.53,0.692 -6.684,-0.063 -9.853,-0.818 l -1.256,-0.297 -0.598,2.506 1.254,0.3 c 1.418,0.338 8.635,1.959 11.515,0.658 2.777,-1.254 4.652,-6.863 5,-7.973 L 2.461,0.77 Z"
             style="fill:#1f2933;fill-opacity:1;fill-rule:nonzero;stroke:none"
             id="path314"
             inkscape:connector-curvature="0" /></g></g></g></g></svg>