<?xml version="1.0" encoding="UTF-8" standalone="no"?>
<!-- Created with Inkscape (http://www.inkscape.org/) -->

<svg
   xmlns:dc="http://purl.org/dc/elements/1.1/"
   xmlns:cc="http://creativecommons.org/ns#"
   xmlns:rdf="http://www.w3.org/1999/02/22-rdf-syntax-ns#"
   xmlns:svg="http://www.w3.org/2000/svg"
   xmlns="http://www.w3.org/2000/svg"
   xmlns:sodipodi="http://sodipodi.sourceforge.net/DTD/sodipodi-0.dtd"
   xmlns:inkscape="http://www.inkscape.org/namespaces/inkscape"
   version="1.1"
   id="svg815"
   xml:space="preserve"
   width="1333.3333"
   height="1333.3333"
   viewBox="0 0 1333.3333 1333.3333"
   sodipodi:docname="other.svg"
   inkscape:version="0.92.3 (2405546, 2018-03-11)"><metadata
     id="metadata821"><rdf:RDF><cc:Work
         rdf:about=""><dc:format>image/svg+xml</dc:format><dc:type
           rdf:resource="http://purl.org/dc/dcmitype/StillImage" /><dc:title></dc:title></cc:Work></rdf:RDF></metadata><defs
     id="defs819"><clipPath
       clipPathUnits="userSpaceOnUse"
       id="clipPath833"><path
         d="M 0,1000 H 1000 V 0 H 0 Z"
         id="path831"
         inkscape:connector-curvature="0" /></clipPath><clipPath
       clipPathUnits="userSpaceOnUse"
       id="clipPath861"><path
         d="m 176.741,823.259 h 516.76 v -496.6 h -516.76 z"
         id="path859"
         inkscape:connector-curvature="0" /></clipPath><linearGradient
       x1="0"
       y1="0"
       x2="1"
       y2="0"
       gradientUnits="userSpaceOnUse"
       gradientTransform="matrix(407.54935,-433.94894,-433.94894,-407.54935,92.329468,930.37561)"
       spreadMethod="pad"
       id="linearGradient873"><stop
         style="stop-opacity:1;stop-color:#ffffff"
         offset="0"
         id="stop867" /><stop
         style="stop-opacity:1;stop-color:#646464"
         offset="0.609591"
         id="stop869" /><stop
         style="stop-opacity:1;stop-color:#000000"
         offset="1"
         id="stop871" /></linearGradient></defs><sodipodi:namedview
     pagecolor="#ffffff"
     bordercolor="#666666"
     borderopacity="1"
     objecttolerance="10"
     gridtolerance="10"
     guidetolerance="10"
     inkscape:pageopacity="0"
     inkscape:pageshadow="2"
     inkscape:window-width="2560"
     inkscape:window-height="1361"
     id="namedview817"
     showgrid="false"
     inkscape:zoom="0.87600005"
     inkscape:cx="666.66663"
     inkscape:cy="666.66663"
     inkscape:window-x="2551"
     inkscape:window-y="-9"
     inkscape:window-maximized="1"
     inkscape:current-layer="g823" /><g
     id="g823"
     inkscape:groupmode="layer"
     inkscape:label="vectorstock_24272062"
     transform="matrix(1.3333333,0,0,-1.3333333,0,1333.3333)"><g
       id="g827"
       inkscape:export-xdpi="6.3200002"
       inkscape:export-ydpi="6.3200002"><g
         id="g829"
         clip-path="url(#clipPath833)"><g
           id="g835"
           transform="translate(500.0015,156.7412)"><path
             d="m 0,0 c -19.996,0 -38.796,7.787 -52.936,21.927 l -268.396,268.395 c -14.139,14.139 -21.926,32.939 -21.926,52.935 0,19.996 7.787,38.796 21.926,52.935 l 268.396,268.397 c 14.141,14.14 32.94,21.926 52.936,21.926 19.997,0 38.796,-7.787 52.935,-21.926 L 321.331,396.193 c 14.139,-14.14 21.926,-32.94 21.926,-52.936 0,-19.996 -7.787,-38.796 -21.927,-52.935 L 52.935,21.927 C 38.796,7.787 19.997,0 0,0"
             style="fill:#c80000;fill-opacity:1;fill-rule:nonzero;stroke:none"
             id="path837"
             inkscape:connector-curvature="0" /></g><g
           id="g839"
           transform="translate(500.0015,176.7412)"
           style="fill:#ffffff;fill-opacity:1"><path
             d="m 0,0 c -14.654,0 -28.431,5.707 -38.793,16.069 l -268.396,268.396 c -10.362,10.361 -16.069,24.139 -16.069,38.792 0,14.655 5.707,28.431 16.069,38.794 l 268.396,268.396 c 10.362,10.362 24.139,16.068 38.793,16.068 14.654,0 28.431,-5.706 38.792,-16.068 L 307.188,362.051 c 10.362,-10.363 16.069,-24.139 16.069,-38.794 0,-14.653 -5.707,-28.431 -16.069,-38.792 L 38.792,16.069 C 28.431,5.707 14.654,0 0,0"
             style="fill:#ffffff;fill-opacity:1;fill-rule:nonzero;stroke:none"
             id="path841"
             inkscape:connector-curvature="0" /></g><g
           id="g843"
           transform="translate(482.4214,214.0234)"><path
             d="m 0,0 -268.396,268.396 c -9.709,9.708 -9.709,25.45 0,35.159 L 0,571.951 c 9.709,9.709 25.451,9.709 35.16,0 L 303.555,303.555 c 9.709,-9.709 9.709,-25.451 0,-35.159 L 35.16,0 C 25.451,-9.709 9.709,-9.709 0,0"
             style="fill:#c80000;fill-opacity:1;fill-rule:nonzero;stroke:none"
             id="path845"
             inkscape:connector-curvature="0" /></g><g
           id="g847"
           transform="translate(498.8994,417.6943)"
           style="fill:#ffffff;fill-opacity:1"><path
             d="m 0,0 c -8.844,0 -15.076,4.116 -18.523,12.236 -3.162,7.441 -5.442,18.824 -6.778,33.829 l -7.05,114.657 c -1.318,22.276 -1.986,38.501 -1.986,48.227 0,13.74 3.407,24.666 10.127,32.472 6.789,7.886 15.823,11.885 26.853,11.885 13.491,0 24.874,-7.423 29.503,-17.736 4.37,-9.749 4.392,-21.677 4.392,-39.778 0,-10.525 -0.521,-21.384 -1.552,-32.275 L 25.522,45.606 C 24.48,31.381 22.192,20.254 18.723,12.549 14.973,4.222 8.673,0 0,0"
             style="fill:#ffffff;fill-opacity:1;fill-rule:nonzero;stroke:none"
             id="path849"
             inkscape:connector-curvature="0" /></g><g
           id="g851"
           transform="translate(500.2202,329)"
           style="fill:#ffffff;fill-opacity:1"><path
             d="m 0,0 c -8.955,0 -16.77,2.899 -23.448,8.696 -6.679,5.797 -10.017,13.906 -10.017,24.328 0,9.099 3.193,16.843 9.577,23.227 6.385,6.386 14.201,9.578 23.448,9.578 9.247,0 17.135,-3.192 23.667,-9.578 6.529,-6.384 9.797,-14.128 9.797,-23.227 0,-10.275 -3.302,-18.349 -9.907,-24.217 C 16.511,2.938 8.807,0 0,0"
             style="fill:#ffffff;fill-opacity:1;fill-rule:nonzero;stroke:none"
             id="path853"
             inkscape:connector-curvature="0" /></g></g></g></g></svg>