<?xml version="1.0" encoding="UTF-8" standalone="no"?>
<!-- Created with Inkscape (http://www.inkscape.org/) -->

<svg
   xmlns:dc="http://purl.org/dc/elements/1.1/"
   xmlns:cc="http://creativecommons.org/ns#"
   xmlns:rdf="http://www.w3.org/1999/02/22-rdf-syntax-ns#"
   xmlns:svg="http://www.w3.org/2000/svg"
   xmlns="http://www.w3.org/2000/svg"
   xmlns:sodipodi="http://sodipodi.sourceforge.net/DTD/sodipodi-0.dtd"
   xmlns:inkscape="http://www.inkscape.org/namespaces/inkscape"
   version="1.1"
   id="svg815"
   xml:space="preserve"
   width="1333.3333"
   height="1333.3333"
   viewBox="0 0 1333.3333 1333.3333"
   sodipodi:docname="weather.svg"
   inkscape:version="0.92.3 (2405546, 2018-03-11)"><metadata
     id="metadata821"><rdf:RDF><cc:Work
         rdf:about=""><dc:format>image/svg+xml</dc:format><dc:type
           rdf:resource="http://purl.org/dc/dcmitype/StillImage" /><dc:title /></cc:Work></rdf:RDF></metadata><defs
     id="defs819"><clipPath
       clipPathUnits="userSpaceOnUse"
       id="clipPath833"><path
         d="M 0,1000 H 1000 V 0 H 0 Z"
         id="path831"
         inkscape:connector-curvature="0" /></clipPath><clipPath
       clipPathUnits="userSpaceOnUse"
       id="clipPath861"><path
         d="M 144.592,855.408 H 855.407 V 144.593 H 144.592 Z"
         id="path859"
         inkscape:connector-curvature="0" /></clipPath><linearGradient
       x1="0"
       y1="0"
       x2="1"
       y2="0"
       gradientUnits="userSpaceOnUse"
       gradientTransform="matrix(798.6673,-794.60175,-794.60175,-798.6673,-92.383766,1089.3685)"
       spreadMethod="pad"
       id="linearGradient871"><stop
         style="stop-opacity:1;stop-color:#ffffff"
         offset="0"
         id="stop867" /><stop
         style="stop-opacity:1;stop-color:#000000"
         offset="1"
         id="stop869" /></linearGradient></defs><sodipodi:namedview
     pagecolor="#ffffff"
     bordercolor="#666666"
     borderopacity="1"
     objecttolerance="10"
     gridtolerance="10"
     guidetolerance="10"
     inkscape:pageopacity="0"
     inkscape:pageshadow="2"
     inkscape:window-width="2560"
     inkscape:window-height="1361"
     id="namedview817"
     showgrid="false"
     inkscape:zoom="0.87600005"
     inkscape:cx="476.02737"
     inkscape:cy="666.66663"
     inkscape:window-x="2551"
     inkscape:window-y="-9"
     inkscape:window-maximized="1"
     inkscape:current-layer="g823" /><g
     id="g823"
     inkscape:groupmode="layer"
     inkscape:label="vectorstock_24271460"
     transform="matrix(1.3333333,0,0,-1.3333333,0,1333.3333)"><g
       id="g827"
       inkscape:export-xdpi="6.3200002"
       inkscape:export-ydpi="6.3200002"><g
         id="g829"
         clip-path="url(#clipPath833)"><g
           id="g835"
           transform="translate(500.0005,135.5488)"><path
             d="m 0,0 c -21.231,0 -41.191,8.268 -56.204,23.28 l -284.968,284.967 c -15.012,15.012 -23.28,34.973 -23.28,56.204 0,21.231 8.267,41.191 23.28,56.203 l 284.968,284.969 c 15.013,15.012 34.973,23.28 56.204,23.28 21.231,0 41.192,-8.268 56.203,-23.28 L 341.17,420.655 c 15.013,-15.013 23.281,-34.973 23.281,-56.204 0,-21.231 -8.268,-41.192 -23.282,-56.204 L 56.203,23.28 C 41.192,8.268 21.231,0 0,0"
             style="fill:#c80000;fill-opacity:1;fill-rule:nonzero;stroke:none"
             id="path837"
             inkscape:connector-curvature="0" /></g><g
           id="g839"
           transform="translate(807.5625,477.4082)"
           style="fill:#ffffff;fill-opacity:1"><path
             d="m 0,0 -284.97,-284.969 c -6.034,-6.035 -14.057,-9.359 -22.592,-9.359 -8.534,0 -16.558,3.324 -22.594,9.359 L -615.125,-0.001 c -6.034,6.033 -9.357,14.057 -9.357,22.592 0,8.535 3.323,16.559 9.358,22.595 l 284.967,284.968 c 6.036,6.034 14.06,9.358 22.595,9.358 8.535,0 16.558,-3.324 22.591,-9.358 L -0.002,45.186 C 6.033,39.149 9.357,31.125 9.357,22.591 9.357,14.057 6.034,6.033 0,0 m 18.593,63.78 -284.968,284.968 c -11.001,11.002 -25.628,17.061 -41.187,17.061 -15.559,0 -30.187,-6.059 -41.189,-17.061 L -633.719,63.78 c -11.001,-11.002 -17.06,-25.63 -17.06,-41.189 0,-15.559 6.059,-30.187 17.06,-41.187 l 284.968,-284.967 c 11.002,-11.002 25.63,-17.062 41.189,-17.062 15.559,0 30.186,6.06 41.187,17.062 L 18.593,-18.596 c 11.002,11 17.061,25.628 17.061,41.187 0,15.559 -6.059,30.187 -17.061,41.189"
             style="fill:#ffffff;fill-opacity:1;fill-rule:nonzero;stroke:none"
             id="path841"
             inkscape:connector-curvature="0" /></g><g
           id="g843"
           transform="translate(382.0947,489.1318)"
           style="fill:#ffffff;fill-opacity:1"><path
             d="m 0,0 c -5.351,-4.841 -9.305,-8.608 -12.163,-14.664 -1.027,-2.177 -2.251,-6.122 0.121,-11.069 0.482,-1.004 1.078,-9.649 42.002,-12.955 27.188,-2.195 67.2,-2.285 91.089,-1.301 14.103,0.581 27.463,0.821 30.747,0.72 4.429,-0.135 8.766,0.128 15.204,-0.028 20.931,-0.506 40.503,0.951 70.636,-3.113 34.683,-4.678 54.005,-13.113 60.314,-34.581 l 0.132,-0.489 0.088,-0.499 c 1.043,-5.97 7.885,-23.572 -8.705,-55.046 l -43.543,0.19 c 13.196,20.017 22.64,34.995 22.681,48.281 0.141,10.118 -12.818,17.878 -35.289,21.913 -23.388,4.202 -52.612,4.872 -72.883,5.363 -6.577,0.159 -12.255,0.296 -16.939,0.529 -5.477,0.27 -16.32,-0.191 -28.875,-0.728 -24.415,-1.043 -57.852,-2.469 -86.291,-0.173 -24.274,1.961 -65.322,4.11 -71.8,26.483 -2.399,8.286 -1.018,19.059 3.474,26.275 12.025,19.318 34.01,26.524 34.01,26.524 L 22.485,17.827 C 22.485,17.827 5.854,5.994 0,0"
             style="fill:#ffffff;fill-opacity:1;fill-rule:nonzero;stroke:none"
             id="path845"
             inkscape:connector-curvature="0" /></g><g
           id="g847"
           transform="translate(536.9873,357.4834)"
           style="fill:#ffffff;fill-opacity:1"><path
             d="m 0,0 -18.937,-0.572 -23.258,-0.805 c 1.355,2.156 12.652,9.411 18.295,22.326 3.536,8.094 5.407,14.914 -14.147,20.572 -26.046,7.539 -36.12,23.854 -33.784,40.785 4.84,35.071 46.74,51.61 46.74,51.61 L 5.1,130.684 c 0,0 -51.135,-25.655 -51.135,-50.772 0,-6.871 2.446,-14.649 17.677,-17.041 C 18.848,55.459 16.834,35.727 13.461,24.699 9.311,11.128 0.852,1.326 0,0"
             style="fill:#ffffff;fill-opacity:1;fill-rule:nonzero;stroke:none"
             id="path849"
             inkscape:connector-curvature="0" /></g><g
           id="g851"
           transform="translate(486.4087,552.3081)"
           style="fill:#ffffff;fill-opacity:1"><path
             d="m 0,0 c -0.128,-0.942 -0.921,-1.612 -1.77,-1.497 l -35.883,4.902 c -0.848,0.116 -1.432,0.973 -1.304,1.916 l 1.631,11.943 c 0.129,0.942 0.922,1.611 1.771,1.496 L 0.327,13.858 C 1.176,13.743 1.76,12.885 1.631,11.942 Z m -98.274,34.712 c 0.212,1.552 1.517,2.655 2.915,2.464 l 4.796,-0.655 c 1.398,-0.191 2.359,-1.604 2.147,-3.155 L -91.12,13.57 c -0.212,-1.552 -1.517,-2.655 -2.915,-2.464 l -4.796,0.655 c -1.398,0.191 -2.359,1.604 -2.147,3.156 z m 36.601,56.693 c 18.021,0.072 36.059,-1.109 53.697,-3.518 17.643,-2.41 35.344,-6.112 52.69,-11.015 L 54.875,40.028 C 8.638,43.26 -36.743,49.427 -81.242,58.62 Z M 55.777,13.67 c 0.212,1.552 1.516,2.655 2.915,2.464 l 4.796,-0.655 c 1.398,-0.19 2.359,-1.603 2.147,-3.155 L 62.931,-7.472 c -0.212,-1.552 -1.516,-2.654 -2.915,-2.464 l -4.796,0.655 c -1.397,0.191 -2.359,1.604 -2.147,3.156 z m 22.128,15.027 -4.912,5.824 c -1.556,1.843 -2.709,4.058 -3.378,6.483 L 58.042,82.965 c -0.919,3.33 -3.329,5.854 -6.381,6.722 -38.112,10.832 -76.977,16.141 -116.597,15.928 -3.183,-0.017 -6.188,-1.812 -7.964,-4.788 L -94.633,64.416 c -1.226,-2.053 -2.824,-3.809 -4.689,-5.15 l -7.443,-5.352 c -2.296,-1.652 -3.852,-4.312 -4.257,-7.281 l -6.416,-46.969 c -0.774,-5.671 2.74,-10.834 7.849,-11.532 l 2.702,-0.369 -2.354,-17.233 c -0.585,-4.281 2.068,-8.178 5.925,-8.705 l 15,-2.049 c 3.857,-0.526 7.457,2.516 8.042,6.798 l 2.354,17.233 109.408,-14.944 -2.354,-17.234 c -0.585,-4.28 2.068,-8.177 5.925,-8.705 l 15,-2.049 c 3.857,-0.526 7.457,2.517 8.041,6.798 l 2.355,17.233 2.702,-0.369 c 5.109,-0.698 9.879,3.334 10.653,9.005 l 6.395,46.816 c 0.417,3.056 -0.428,6.12 -2.3,8.339"
             style="fill:#ffffff;fill-opacity:1;fill-rule:nonzero;stroke:none"
             id="path853"
             inkscape:connector-curvature="0" /></g></g></g></g></svg>